<svg height="24" viewBox="0 0 40 24" width="40" xmlns="http://www.w3.org/2000/svg"><path d="m1195.71237 4719c.84162 0 1.35954-.46206 1.55376-1.38619l3.69017-20.79283c.19422-1.05614-.25896-1.58422-1.35954-1.58422h-10.8763c-.84162 0-1.39191.39606-1.65086 1.18816l-6.99191 20.89185c-.12948.52807-.09711.94063.09711 1.23767s.55029.44556 1.06821.44556zm19.14492 0c.91472 0 1.43741-.46206 1.56809-1.38619l3.5282-20.79283c.19601-1.05614-.22868-1.58422-1.27408-1.58422h-11.07462c-.84938 0-1.40474.39606-1.66609 1.18816l-6.86039 20.89185c-.13067.52807-.098.94063.09801 1.23767s.55536.44556 1.07806.44556z" fill="#be1e2d" fill-rule="evenodd" transform="matrix(-1 0 0 -1 1220 4719)"/></svg>