<svg height="24" viewBox="0 0 42 24" width="42" xmlns="http://www.w3.org/2000/svg"><path d="m1196 4407c.55399 0 1.07191-.46667 1-1.04348l4-20.86956c.15052-1.55363-.30266-2.08696-1-2.08696h-11c-1.12116 0-1.67145.4-2 1.04348l-7 20.86956c-.05179.92029-.01942 1.33696 0 2.08696.36902-.15.72509 0 1 0zm19 0c.77201 0 1.2947-.46667 1-1.04348l4-20.86956c.14959-1.55363-.2751-2.08696-1-2.08696h-11c-1.2445 0-1.79986.4-2 1.04348l-7 20.86956c-.05227.92029-.0196 1.33696 0 2.08696.37242-.15.73177 0 1 0z" fill="#be1e2d" fill-rule="evenodd" transform="translate(-1179 -4383)"/></svg>